<?xml version="1.0" encoding="utf-8"?>
<!-- Generator: Ma bite et mon couteau 1.0  -->
<!DOCTYPE svg PUBLIC "-//W3C//DTD SVG 1.1//EN" "http://www.w3.org/Graphics/SVG/1.1/DTD/svg11.dtd">
<svg version="1.1" id="bouclette" xmlns="http://www.w3.org/2000/svg" xmlns:xlink="http://www.w3.org/1999/xlink" x="0px" y="0px" viewBox="0 0 57 57" enable-background="new 0 0 57 57" xml:space="preserve">
<g>
	<path fill="#FFFFFF" d="M30.66,8.591c4.978-0.028,9.87,0.256,14.706,0.853l-3.271,13.653c-0.739,2.901-0.853,5.774-0.284,8.647
		l0.967,4.779c0.91,3.954-1.166,5.803-6.372,5.518c-2.816-0.313-5.461-0.37-7.993-0.142c-2.532,0.284-5.661,0.796-9.444,1.593
		c-3.755,0.825-7.907,0.768-12.43-0.142c-1.707-0.37-2.503-1.195-2.418-2.475c0.085-1.252,1.138-2.105,3.157-2.617
		c5.49-1.394,11.292-3.897,17.465-7.452c2.617-1.508,4.409-3.84,5.348-6.912c0.54-3.043,0.825-6.059,0.882-9.045
		C30.973,12.744,30.859,10.667,30.66,8.591"/>
	<path fill="#C6C6C6" d="M30.66,8.591c4.978-0.028,9.87,0.256,14.706,0.853l-3.271,13.653c-0.739,2.901-0.853,5.774-0.284,8.647
		l0.967,4.779c0.91,3.954-1.166,5.803-6.372,5.518c-2.816-0.313-5.461-0.37-7.993-0.142c-2.532,0.284-5.661,0.796-9.444,1.593
		c-3.755,0.825-7.907,0.768-12.43-0.142c-1.707-0.37-2.503-1.195-2.418-2.475c0.085-1.252,1.138-2.105,3.157-2.617
		c5.49-1.394,11.292-3.897,17.465-7.452c2.617-1.508,4.409-3.84,5.348-6.912c0.54-3.043,0.825-6.059,0.882-9.045
		C30.973,12.744,30.859,10.667,30.66,8.591"/>
	<path fill="#777776" d="M13.398,44.927c-2.221,0-4.585-0.249-7.027-0.741c-2.854-0.618-3.167-2.376-3.101-3.368
		c0.112-1.637,1.39-2.776,3.799-3.387c5.371-1.363,11.013-3.772,17.248-7.364c2.398-1.382,4.061-3.526,4.943-6.373
		c0.514-2.91,0.803-5.891,0.86-8.861c0-1.97-0.101-3.99-0.309-6.16c-0.023-0.239,0.056-0.476,0.216-0.653
		c0.161-0.178,0.389-0.28,0.628-0.281c4.987-0.028,9.965,0.261,14.815,0.86c0.241,0.03,0.458,0.161,0.596,0.361
		c0.139,0.2,0.185,0.449,0.129,0.685l-3.271,13.653c-0.727,2.853-0.817,5.558-0.277,8.282l0.967,4.775
		c0.449,1.947,0.224,3.517-0.672,4.643c-1.159,1.457-3.305,2.076-6.583,1.897c-0.016-0.001-0.032-0.002-0.048-0.004
		c-1.645-0.183-3.238-0.276-4.736-0.276c-1.051,0-2.089,0.046-3.086,0.135c-2.626,0.295-5.776,0.827-9.344,1.578
		C17.336,44.725,15.4,44.927,13.398,44.927z M31.593,9.443c0.157,1.876,0.233,3.653,0.233,5.406
		c-0.059,3.093-0.36,6.181-0.895,9.194c-0.006,0.034-0.014,0.067-0.024,0.1c-1.008,3.299-2.939,5.789-5.738,7.402
		c-6.373,3.671-12.157,6.137-17.681,7.54c-2.432,0.617-2.495,1.543-2.516,1.848c-0.026,0.384-0.079,1.187,1.747,1.583
		c2.319,0.467,4.57,0.704,6.678,0.704c1.879,0,3.691-0.189,5.388-0.562c3.628-0.764,6.833-1.304,9.531-1.607
		c1.066-0.096,2.156-0.144,3.257-0.144c1.554,0,3.202,0.095,4.901,0.283c2.626,0.141,4.359-0.287,5.131-1.257
		c0.556-0.699,0.67-1.782,0.339-3.219l-0.972-4.801c-0.582-2.941-0.483-5.977,0.294-9.027l3.045-12.709
		C40.136,9.699,35.864,9.452,31.593,9.443z"/>
	<path fill="#777776" d="M14.205,44.047c-0.011,0-0.023-0.001-0.035-0.004c-0.076-0.019-0.123-0.096-0.103-0.173
		c0.826-3.303-2.143-6.735-2.173-6.769c-0.052-0.059-0.046-0.149,0.013-0.201c0.059-0.051,0.149-0.046,0.201,0.013
		c0.127,0.145,3.097,3.58,2.235,7.026C14.327,44.004,14.269,44.047,14.205,44.047z"/>
	<path fill="#777776" d="M43.775,16.405c-3.981,0-10.154-0.603-12.182-0.801c-0.319-0.031-0.515-0.051-0.556-0.053
		c-0.154-0.008-0.276-0.137-0.272-0.292s0.127-0.277,0.281-0.277c0.034,0,0.09,0.005,0.602,0.055
		c5.423,0.53,9.503,0.798,12.127,0.798c0.157,0,0.284,0.127,0.284,0.284S43.932,16.405,43.775,16.405z"/>
	<g>
		<path fill="#777776" d="M32.803,14.344c-0.231,0-0.421-0.185-0.426-0.417l-0.095-4.124c-0.005-0.236,0.181-0.431,0.417-0.436 c0.235-0.005,0.431,0.181,0.436,0.417l0.095,4.124c0.005,0.236-0.181,0.431-0.417,0.436 C32.809,14.344,32.806,14.344,32.803,14.344z"/>
		<path fill="#777776" d="M35.648,14.581c-0.008,0-0.016,0-0.024-0.001c-0.235-0.013-0.415-0.215-0.402-0.45l0.237-4.188 c0.014-0.235,0.209-0.413,0.45-0.402c0.235,0.013,0.415,0.215,0.402,0.45l-0.237,4.188C36.06,14.406,35.872,14.581,35.648,14.581z "/>
		<path fill="#777776" d="M38.492,14.818c-0.019,0-0.038-0.001-0.057-0.004c-0.234-0.031-0.397-0.246-0.366-0.479l0.569-4.251 c0.031-0.234,0.247-0.397,0.479-0.366c0.234,0.031,0.397,0.246,0.366,0.479l-0.569,4.251 C38.886,14.663,38.703,14.818,38.492,14.818z"/>
	</g>
	<g>
		<path fill="#777776" d="M30.037,28.26c-0.112,0-0.224-0.044-0.307-0.131c-0.163-0.17-0.158-0.44,0.012-0.603 c2.316-2.229,2.837-11.369,2.842-11.461c0.013-0.235,0.215-0.414,0.449-0.403c0.235,0.013,0.416,0.214,0.403,0.449 c-0.021,0.39-0.546,9.57-3.102,12.03C30.25,28.22,30.143,28.26,30.037,28.26z"/>
		<path fill="#777776" d="M33.055,28.725c-0.064,0-0.129-0.014-0.19-0.045c-0.211-0.105-0.297-0.361-0.192-0.572 c1.381-2.776,1.973-7.175,2.327-9.804c0.116-0.861,0.207-1.541,0.298-1.977c0.049-0.231,0.274-0.378,0.505-0.331 c0.231,0.048,0.379,0.274,0.331,0.505c-0.085,0.406-0.174,1.073-0.288,1.917c-0.361,2.681-0.964,7.168-2.409,10.07 C33.362,28.639,33.211,28.725,33.055,28.725z"/>
	</g>
</g>
<g>
	<path fill="#FFFFFF" d="M36.254,10.701c4.978-0.028,9.87,0.256,14.706,0.853l-3.271,13.653c-0.739,2.901-0.853,5.774-0.284,8.647
		l0.967,4.779c0.91,3.954-1.166,5.803-6.372,5.518c-2.816-0.313-5.461-0.37-7.993-0.142c-2.532,0.284-5.661,0.796-9.444,1.593
		c-3.755,0.825-7.907,0.768-12.43-0.142c-1.707-0.37-2.503-1.195-2.418-2.475c0.085-1.252,1.138-2.105,3.157-2.617
		c5.49-1.394,11.292-3.897,17.465-7.452c2.617-1.508,4.409-3.84,5.348-6.912c0.54-3.043,0.825-6.059,0.882-9.045
		C36.567,14.854,36.453,12.777,36.254,10.701"/>
	<path fill="#777776" d="M18.992,47.037c-2.221,0-4.585-0.249-7.027-0.741c-2.854-0.618-3.167-2.375-3.101-3.368
		c0.112-1.637,1.39-2.777,3.799-3.387c5.371-1.364,11.013-3.773,17.249-7.365c2.398-1.382,4.061-3.526,4.942-6.373
		c0.514-2.909,0.803-5.89,0.86-8.861c0-1.971-0.101-3.991-0.309-6.16c-0.023-0.239,0.056-0.476,0.216-0.654
		c0.161-0.178,0.389-0.28,0.628-0.281c4.989-0.026,9.965,0.261,14.815,0.86c0.241,0.03,0.458,0.161,0.596,0.361
		c0.139,0.2,0.185,0.449,0.129,0.685l-3.271,13.653c-0.727,2.853-0.817,5.558-0.277,8.282l0.967,4.775
		c0.449,1.947,0.224,3.517-0.672,4.643c-1.159,1.456-3.303,2.074-6.582,1.896c-0.016-0.001-0.032-0.002-0.047-0.004
		c-1.645-0.183-3.239-0.275-4.737-0.275c-1.051,0-2.089,0.045-3.085,0.135c-2.626,0.295-5.776,0.827-9.344,1.578
		C22.93,46.835,20.994,47.037,18.992,47.037z M37.187,11.552c0.157,1.875,0.233,3.652,0.233,5.406
		c-0.059,3.093-0.36,6.181-0.895,9.194c-0.006,0.034-0.014,0.067-0.024,0.1c-1.008,3.299-2.938,5.79-5.738,7.402
		c-6.373,3.671-12.156,6.137-17.681,7.54c-2.432,0.616-2.495,1.543-2.516,1.848c-0.026,0.384-0.079,1.187,1.747,1.582
		c2.319,0.467,4.57,0.704,6.678,0.704c1.878,0,3.691-0.189,5.388-0.562c3.628-0.764,6.833-1.304,9.531-1.607
		c1.066-0.096,2.155-0.144,3.257-0.144c1.554,0,3.202,0.095,4.901,0.283c2.626,0.141,4.359-0.286,5.131-1.257
		c0.556-0.699,0.67-1.782,0.339-3.219l-0.972-4.801c-0.582-2.941-0.483-5.977,0.294-9.027l3.045-12.709
		C45.73,11.809,41.458,11.562,37.187,11.552z"/>
	<path fill="#777776" d="M49.239,18.281c-3.981,0-10.154-0.603-12.182-0.801c-0.319-0.031-0.515-0.051-0.556-0.053
		c-0.154-0.008-0.276-0.137-0.272-0.292c0.004-0.154,0.127-0.277,0.281-0.277c0.034,0,0.09,0.005,0.602,0.055
		c5.423,0.53,9.503,0.798,12.127,0.798c0.157,0,0.284,0.127,0.284,0.284S49.396,18.281,49.239,18.281z"/>
	<path fill="#777776" d="M37.933,43.454c-0.007,0-0.015-0.001-0.022-0.002c-0.078-0.013-0.131-0.085-0.118-0.163
		c0.033-0.204,0.822-5.014,3.209-6.127c2.834-1.322,6.411-1.669,6.447-1.672c0.082-0.006,0.147,0.05,0.155,0.128
		c0.007,0.078-0.05,0.147-0.128,0.155c-0.036,0.003-3.565,0.345-6.353,1.647c-2.25,1.05-3.041,5.866-3.049,5.914
		C38.062,43.404,38.001,43.454,37.933,43.454z"/>
	<path fill="#777776" d="M19.799,46.157c-0.011,0-0.023-0.001-0.035-0.004c-0.076-0.019-0.123-0.096-0.103-0.173
		c0.826-3.303-2.143-6.735-2.173-6.769c-0.052-0.059-0.046-0.149,0.013-0.201c0.059-0.052,0.149-0.046,0.201,0.013
		c0.127,0.145,3.097,3.58,2.235,7.026C19.921,46.113,19.863,46.157,19.799,46.157z"/>
	<g>
		<path fill="#777776" d="M38.691,16.548c-0.231,0-0.421-0.185-0.426-0.417l-0.095-4.124c-0.005-0.236,0.181-0.431,0.417-0.436 c0.238-0.002,0.431,0.181,0.436,0.417l0.095,4.124c0.005,0.236-0.181,0.431-0.417,0.436 C38.697,16.548,38.694,16.548,38.691,16.548z"/>
		<path fill="#777776" d="M41.536,16.785c-0.008,0-0.016,0-0.024-0.001c-0.235-0.013-0.415-0.215-0.402-0.45l0.237-4.188 c0.014-0.235,0.209-0.414,0.45-0.402c0.235,0.013,0.415,0.215,0.402,0.45l-0.237,4.188C41.948,16.61,41.76,16.785,41.536,16.785z" />
		<path fill="#777776" d="M44.38,17.022c-0.019,0-0.038-0.001-0.057-0.004c-0.233-0.031-0.397-0.246-0.366-0.479l0.569-4.251 c0.031-0.234,0.247-0.397,0.479-0.366c0.233,0.031,0.397,0.246,0.366,0.479l-0.569,4.251 C44.774,16.867,44.591,17.022,44.38,17.022z"/>
		<path fill="#777776" d="M47.225,17.26c-0.029,0-0.058-0.003-0.088-0.009c-0.231-0.048-0.379-0.274-0.331-0.505l0.901-4.314 c0.049-0.231,0.274-0.378,0.505-0.33c0.231,0.048,0.379,0.274,0.331,0.505l-0.901,4.314C47.6,17.121,47.423,17.26,47.225,17.26z" />
	</g>
	<g>
		<path fill="#777776" d="M35.925,30.464c-0.112,0-0.224-0.044-0.307-0.131c-0.163-0.17-0.158-0.44,0.012-0.603 c2.316-2.229,2.837-11.369,2.842-11.461c0.013-0.235,0.216-0.417,0.449-0.403c0.235,0.013,0.416,0.214,0.403,0.449 c-0.021,0.39-0.546,9.57-3.102,12.029C36.138,30.424,36.031,30.464,35.925,30.464z"/>
		<path fill="#777776" d="M38.942,30.93c-0.064,0-0.129-0.014-0.19-0.045c-0.211-0.105-0.297-0.361-0.192-0.572 c1.382-2.776,1.974-7.177,2.327-9.806c0.116-0.86,0.207-1.539,0.298-1.975c0.048-0.231,0.276-0.378,0.505-0.331 c0.231,0.048,0.379,0.274,0.331,0.505c-0.085,0.406-0.174,1.072-0.288,1.915c-0.361,2.681-0.964,7.169-2.409,10.072 C39.25,30.843,39.099,30.93,38.942,30.93z"/>
		<path fill="#777776" d="M41.961,31.395c-0.034,0-0.068-0.004-0.102-0.012c-0.229-0.056-0.369-0.287-0.313-0.516 c0.777-3.176,1.219-5.743,1.61-8.008c0.237-1.376,0.461-2.675,0.737-3.999c0.048-0.231,0.274-0.379,0.505-0.331 c0.231,0.048,0.379,0.274,0.331,0.505c-0.273,1.31-0.496,2.602-0.732,3.97c-0.393,2.279-0.838,4.862-1.622,8.066 C42.328,31.264,42.153,31.395,41.961,31.395z"/>
		<path fill="#777776" d="M44.98,31.861c-0.014,0-0.028-0.001-0.042-0.002c-0.234-0.023-0.406-0.232-0.383-0.466 c0.499-5.089,0.794-6.435,1.44-9.384c0.173-0.79,0.372-1.696,0.606-2.823c0.048-0.231,0.276-0.378,0.505-0.331 c0.231,0.048,0.379,0.274,0.331,0.505c-0.236,1.13-0.435,2.039-0.608,2.831c-0.639,2.915-0.93,4.245-1.424,9.284 C45.382,31.696,45.197,31.861,44.98,31.861z"/>
	</g>
</g>
</svg>
