<?xml version="1.0" encoding="utf-8"?>
<!-- Generator: Ma bite et mon couteau 1.0  -->
<!DOCTYPE svg PUBLIC "-//W3C//DTD SVG 1.1//EN" "http://www.w3.org/Graphics/SVG/1.1/DTD/svg11.dtd">
<svg version="1.1" id="collants" xmlns="http://www.w3.org/2000/svg" xmlns:xlink="http://www.w3.org/1999/xlink" x="0px" y="0px"  viewBox="0 0 57 57" enable-background="new 0 0 57 57" xml:space="preserve">
<path fill="#C6C6C6" d="M40.413,32.901c-0.523-2.643-0.419-5.286,0.262-7.956c0.533-1.862,4.331-16.061,4.889-24.942H31.207 c-0.115,4.766-0.765,15.744-0.765,17.352c-0.052,2.748-0.314,5.522-0.811,8.322c-0.864,2.826-2.512,4.972-4.92,6.359 c-5.679,3.271-11.017,5.574-16.068,6.856c-1.858,0.471-2.826,1.256-2.905,2.408c-0.078,1.178,0.654,1.937,2.224,2.277 c4.161,0.837,7.982,0.89,11.436,0.131c3.481-0.733,6.359-1.204,8.688-1.465c2.329-0.209,4.763-0.157,7.354,0.131 c4.789,0.262,6.7-1.439,5.862-5.077L40.413,32.901z"/>
<path fill="#777776" d="M41.183,32.748c-0.496-2.507-0.414-4.996,0.246-7.587c0.046-0.162,4.331-15.62,4.921-25.158h-1.572 c-0.593,9.348-4.812,24.567-4.864,24.748c-0.715,2.806-0.806,5.599-0.27,8.305l0.894,4.417c0.311,1.351,0.194,2.361-0.346,3.004 c-0.729,0.866-2.305,1.241-4.686,1.114c-2.695-0.298-5.145-0.341-7.506-0.128c-2.483,0.279-5.431,0.776-8.769,1.479 c-3.315,0.728-7.054,0.683-11.102-0.131c-1.68-0.364-1.631-1.102-1.607-1.456c0.019-0.28,0.077-1.133,2.315-1.7 c5.083-1.291,10.404-3.56,16.267-6.937c2.575-1.484,4.352-3.775,5.279-6.81c0.009-0.03,0.017-0.061,0.022-0.092 c0.492-2.773,0.769-5.614,0.823-8.459c0-0.699,0.131-3.312,0.283-6.338c0.235-4.693,0.427-8.654,0.483-11.014h-1.57 c-0.066,2.647-0.298,7.285-0.481,10.936c-0.159,3.173-0.284,5.678-0.284,6.402c-0.052,2.733-0.318,5.475-0.791,8.153 c-0.811,2.62-2.341,4.593-4.547,5.863c-5.737,3.305-10.928,5.521-15.869,6.776c-2.216,0.562-3.393,1.61-3.495,3.117 c-0.061,0.913,0.227,2.53,2.853,3.099c2.25,0.453,4.412,0.679,6.469,0.679c1.85,0,3.616-0.183,5.284-0.55 c3.283-0.691,6.181-1.18,8.597-1.452c2.244-0.202,4.598-0.159,7.197,0.129c0.015,0.002,0.029,0.003,0.044,0.004 c2.955,0.162,4.914-0.385,5.995-1.67c0.876-1.041,1.103-2.51,0.68-4.347L41.183,32.748z"/>
<path fill="#777776" d="M15.015,44.219c-0.01,0-0.021-0.001-0.032-0.004c-0.07-0.018-0.113-0.089-0.095-0.159 c0.76-3.039-1.972-6.197-2-6.228c-0.048-0.054-0.042-0.137,0.012-0.185c0.054-0.048,0.137-0.042,0.185,0.012 c0.117,0.133,2.849,3.294,2.057,6.464C15.127,44.18,15.074,44.219,15.015,44.219z"/>
<path fill="#FFFFFF" d="M45.559,34.842c-0.523-2.643-0.419-5.286,0.262-7.956c0.574-2.005,4.934-18.311,4.958-26.883H36.352 c0.158,2.167-0.764,17.377-0.764,19.293c-0.052,2.748-0.314,5.522-0.811,8.322c-0.864,2.826-2.512,4.972-4.92,6.359 c-5.679,3.271-11.017,5.574-16.068,6.856c-1.858,0.471-2.826,1.256-2.905,2.408c-0.079,1.178,0.654,1.937,2.224,2.277 c4.161,0.837,7.982,0.89,11.436,0.131c3.481-0.733,6.359-1.204,8.688-1.465c2.329-0.209,4.763-0.157,7.354,0.131 c4.789,0.262,6.7-1.439,5.862-5.077L45.559,34.842z"/>
<path fill="#777776" d="M46.309,34.716c-0.492-2.507-0.405-4.996,0.26-7.586c0.05-0.174,5.008-17.938,5.036-27.126h-1.57 c-0.029,8.982-4.925,26.52-4.981,26.714c-0.72,2.805-0.816,5.598-0.285,8.305l0.887,4.418c0.309,1.351,0.19,2.362-0.352,3.004 c-0.731,0.865-2.307,1.237-4.688,1.106c-2.694-0.303-5.144-0.35-7.505-0.141c-2.483,0.275-5.432,0.767-8.772,1.464 c-3.316,0.722-7.055,0.671-11.101-0.151c-1.68-0.367-1.629-1.105-1.605-1.459c0.02-0.28,0.079-1.133,2.318-1.696 c5.085-1.282,10.41-3.542,16.279-6.909c2.578-1.479,4.358-3.767,5.291-6.801c0.009-0.03,0.017-0.061,0.022-0.092 c0.497-2.772,0.779-5.613,0.838-8.458c0.001-0.699,0.137-3.312,0.294-6.338c0.337-6.495,0.588-11.588,0.504-12.965h-1.57 c0,0.004-0.002,0.007-0.001,0.011c0.108,1.145-0.244,7.924-0.501,12.873c-0.164,3.172-0.294,5.678-0.295,6.401 c-0.057,2.732-0.328,5.475-0.805,8.151c-0.816,2.618-2.349,4.588-4.557,5.856c-5.743,3.295-10.938,5.502-15.881,6.748 c-2.218,0.558-3.395,1.604-3.5,3.11c-0.063,0.913,0.223,2.53,2.847,3.104c2.249,0.457,4.411,0.687,6.467,0.69 c1.851,0.003,3.617-0.177,5.285-0.541c3.284-0.685,6.183-1.169,8.599-1.437c2.244-0.198,4.598-0.151,7.196,0.142 c0.015,0.002,0.029,0.003,0.044,0.004c2.955,0.167,4.914-0.376,5.998-1.659c0.877-1.039,1.107-2.508,0.687-4.346L46.309,34.716z"/>
<path fill="#777776" d="M20.162,46.16c-0.01,0-0.021-0.001-0.032-0.004c-0.07-0.018-0.113-0.089-0.095-0.159 c0.76-3.039-1.972-6.197-2-6.228c-0.048-0.054-0.042-0.137,0.012-0.185c0.054-0.047,0.137-0.042,0.185,0.012 c0.117,0.133,2.849,3.294,2.057,6.464C20.274,46.121,20.22,46.16,20.162,46.16z"/>
</svg>
