<?xml version="1.0" encoding="utf-8"?>
<!-- Generator: Ma bite et mon couteau 1.0  -->
<!DOCTYPE svg PUBLIC "-//W3C//DTD SVG 1.1//EN" "http://www.w3.org/Graphics/SVG/1.1/DTD/svg11.dtd">
<svg version="1.1" id="de_luxe" xmlns="http://www.w3.org/2000/svg" xmlns:xlink="http://www.w3.org/1999/xlink" x="0px" y="0px"
	 viewBox="0 0 57 57" enable-background="new 0 0 57 57" xml:space="preserve">
<g>
	<g>
		<path fill="#777776" d="M10.598,37.125c-4.748,1.123-5.964,1.312-6.514,3.437C3.533,42.688,3.789,42.399,8,43.576s7-0.16,7-0.16
			s16.667-4.5,20.333-10.667S45.25,9.796,45.25,9.796s-0.586-0.533-4.198-0.8C37.441,8.729,30.88,8.534,30.88,8.534
			s-0.713,0.045-0.172,3.403c0.541,3.359,0.244,12.512-2.208,15.563S16.672,35.688,10.598,37.125z"/>
		<path fill="#777776" d="M30.308,14.825c-0.057,3.002-0.343,6.032-0.886,9.091c-0.944,3.088-2.745,5.432-5.375,6.947
			c-5.018,2.89-9.792,5.088-14.353,6.564c0.666,0.374,1.197,0.605,1.545,0.646c0,0,4.692,0.189,10.704-0.62
			c6.011-0.809,8.727-4.24,13.587-4.24s5.955,0,5.955,0l0,0L41.2,31.807c-0.572-2.888-0.457-5.775,0.286-8.691l3.288-13.723
			c-4.86-0.6-9.778-0.886-14.781-0.858C30.193,10.622,30.308,12.709,30.308,14.825z"/>
		<path fill="#777776" d="M13.3,45.057c-2.232,0-4.608-0.25-7.063-0.744c-2.869-0.621-3.183-2.388-3.117-3.386
			c0.112-1.645,1.397-2.79,3.818-3.404c5.398-1.37,11.069-3.791,17.337-7.402c2.411-1.389,4.082-3.544,4.968-6.406
			c0.517-2.924,0.807-5.921,0.864-8.906c0-1.98-0.102-4.011-0.311-6.192c-0.023-0.24,0.056-0.478,0.217-0.657
			c0.162-0.179,0.391-0.281,0.632-0.283c5.006-0.027,10.016,0.262,14.891,0.864c0.242,0.03,0.46,0.162,0.599,0.363
			s0.186,0.451,0.129,0.688l-3.288,13.723c-0.731,2.867-0.821,5.586-0.279,8.325l0.972,4.8c0.451,1.957,0.225,3.535-0.676,4.667
			c-1.165,1.464-3.321,2.086-6.616,1.906c-0.016-0.001-0.032-0.002-0.048-0.004c-1.653-0.184-3.255-0.277-4.761-0.277
			c-1.056,0-2.1,0.046-3.101,0.136c-2.639,0.297-5.806,0.831-9.392,1.586C17.258,44.854,15.312,45.057,13.3,45.057z M31.588,9.391
			c0.157,1.885,0.234,3.671,0.234,5.434c-0.059,3.109-0.362,6.213-0.899,9.241c-0.006,0.034-0.014,0.068-0.024,0.101
			c-1.013,3.316-2.953,5.819-5.767,7.44c-6.406,3.69-12.219,6.169-17.771,7.578c-2.444,0.62-2.508,1.551-2.529,1.857
			c-0.026,0.386-0.08,1.193,1.756,1.591c2.331,0.469,4.593,0.708,6.712,0.708c1.888,0,3.71-0.19,5.416-0.565
			c3.647-0.768,6.868-1.311,9.58-1.616c1.071-0.097,2.167-0.145,3.274-0.145c1.561,0,3.218,0.096,4.926,0.285
			c2.639,0.141,4.381-0.288,5.157-1.263c0.559-0.702,0.674-1.791,0.341-3.236l-0.977-4.825c-0.585-2.956-0.486-6.008,0.295-9.073
			l3.06-12.774C40.175,9.649,35.881,9.401,31.588,9.391z"/>
		<path fill="#777776" d="M44.325,16.447c-4.002,0-10.206-0.606-12.244-0.805c-0.321-0.031-0.517-0.051-0.558-0.053
			c-0.155-0.008-0.278-0.138-0.274-0.293c0.004-0.155,0.128-0.279,0.283-0.279c0.034,0,0.09,0.005,0.605,0.055
			c5.451,0.532,9.552,0.802,12.189,0.802c0.158,0,0.286,0.128,0.286,0.286C44.611,16.319,44.483,16.447,44.325,16.447z"/>
		<path fill="#777776" d="M14.112,44.172c-0.011,0-0.023-0.001-0.035-0.004c-0.077-0.019-0.123-0.097-0.104-0.173
			c0.83-3.32-2.154-6.77-2.185-6.804c-0.052-0.059-0.046-0.15,0.013-0.202c0.059-0.052,0.149-0.046,0.202,0.013
			c0.127,0.145,3.113,3.599,2.247,7.062C14.234,44.129,14.176,44.172,14.112,44.172z"/>
	</g>
	<g>
		<path fill="#C6C6C6" d="M10.598,37.125c-4.748,1.123-5.964,1.312-6.514,3.437C3.533,42.688,3.789,42.399,8,43.576s7-0.16,7-0.16
			s16.667-4.5,20.333-10.667S45.25,9.796,45.25,9.796s-0.586-0.533-4.198-0.8C37.441,8.729,30.88,8.534,30.88,8.534
			s-0.713,0.045-0.172,3.403c0.541,3.359,0.244,12.512-2.208,15.563S16.672,35.688,10.598,37.125z"/>
		<path fill="#B2B2B2" d="M30.308,14.825c-0.057,3.002-0.343,6.032-0.886,9.091c-0.944,3.088-2.745,5.432-5.375,6.947
			c-5.018,2.89-9.792,5.088-14.353,6.564c0.666,0.374,1.197,0.605,1.545,0.646c0,0,4.692,0.189,10.704-0.62
			c6.011-0.809,8.727-4.24,13.587-4.24s5.955,0,5.955,0l0,0L41.2,31.807c-0.572-2.888-0.457-5.775,0.286-8.691l3.288-13.723
			c-4.86-0.6-9.778-0.886-14.781-0.858C30.193,10.622,30.308,12.709,30.308,14.825z"/>
		<path fill="#777776" d="M13.3,45.057c-2.232,0-4.608-0.25-7.063-0.744c-2.869-0.621-3.183-2.388-3.117-3.386
			c0.112-1.645,1.397-2.79,3.818-3.404c5.398-1.37,11.069-3.791,17.337-7.402c2.411-1.389,4.082-3.544,4.968-6.406
			c0.517-2.924,0.807-5.921,0.864-8.906c0-1.98-0.102-4.011-0.311-6.192c-0.023-0.24,0.056-0.478,0.217-0.657
			c0.162-0.179,0.391-0.281,0.632-0.283c5.006-0.027,10.016,0.262,14.891,0.864c0.242,0.03,0.46,0.162,0.599,0.363
			s0.186,0.451,0.129,0.688l-3.288,13.723c-0.731,2.867-0.821,5.586-0.279,8.325l0.972,4.8c0.451,1.957,0.225,3.535-0.676,4.667
			c-1.165,1.464-3.321,2.086-6.616,1.906c-0.016-0.001-0.032-0.002-0.048-0.004c-1.653-0.184-3.255-0.277-4.761-0.277
			c-1.056,0-2.1,0.046-3.101,0.136c-2.639,0.297-5.806,0.831-9.392,1.586C17.258,44.854,15.312,45.057,13.3,45.057z M31.588,9.391
			c0.157,1.885,0.234,3.671,0.234,5.434c-0.059,3.109-0.362,6.213-0.899,9.241c-0.006,0.034-0.014,0.068-0.024,0.101
			c-1.013,3.316-2.953,5.819-5.767,7.44c-6.406,3.69-12.219,6.169-17.771,7.578c-2.444,0.62-2.508,1.551-2.529,1.857
			c-0.026,0.386-0.08,1.193,1.756,1.591c2.331,0.469,4.593,0.708,6.712,0.708c1.888,0,3.71-0.19,5.416-0.565
			c3.647-0.768,6.868-1.311,9.58-1.616c1.071-0.097,2.167-0.145,3.274-0.145c1.561,0,3.218,0.096,4.926,0.285
			c2.639,0.141,4.381-0.288,5.157-1.263c0.559-0.702,0.674-1.791,0.341-3.236l-0.977-4.825c-0.585-2.956-0.486-6.008,0.295-9.073
			l3.06-12.774C40.175,9.649,35.881,9.401,31.588,9.391z"/>
		<path fill="#777776" d="M44.325,16.447c-4.002,0-10.206-0.606-12.244-0.805c-0.321-0.031-0.517-0.051-0.558-0.053
			c-0.155-0.008-0.278-0.138-0.274-0.293c0.004-0.155,0.128-0.279,0.283-0.279c0.034,0,0.09,0.005,0.605,0.055
			c5.451,0.532,9.552,0.802,12.189,0.802c0.158,0,0.286,0.128,0.286,0.286C44.611,16.319,44.483,16.447,44.325,16.447z"/>
		<path fill="#777776" d="M14.112,44.172c-0.011,0-0.023-0.001-0.035-0.004c-0.077-0.019-0.123-0.097-0.104-0.173
			c0.83-3.32-2.154-6.77-2.185-6.804c-0.052-0.059-0.046-0.15,0.013-0.202c0.059-0.052,0.149-0.046,0.202,0.013
			c0.127,0.145,3.113,3.599,2.247,7.062C14.234,44.129,14.176,44.172,14.112,44.172z"/>
	</g>
</g>
<g>
	<path fill="#FFFFFF" d="M36.273,10.656c5.003-0.029,9.92,0.257,14.781,0.858l-3.288,13.723c-0.743,2.916-0.858,5.804-0.286,8.691
		l0.972,4.803c0.915,3.974-1.172,5.832-6.404,5.546c-2.83-0.315-5.489-0.372-8.034-0.143c-2.545,0.286-5.689,0.8-9.492,1.601
		c-3.774,0.829-7.948,0.772-12.494-0.143c-1.715-0.372-2.516-1.201-2.43-2.487c0.086-1.258,1.144-2.116,3.173-2.63
		c5.518-1.401,11.35-3.917,17.554-7.49c2.63-1.515,4.431-3.86,5.375-6.947c0.543-3.059,0.829-6.089,0.886-9.091
		C36.587,14.83,36.473,12.743,36.273,10.656"/>
	<path fill="#EDEDED" d="M36.587,16.945c-0.057,3.002-0.343,6.032-0.886,9.091c-0.944,3.088-2.745,5.432-5.375,6.947
		c-5.018,2.89-9.792,5.088-14.353,6.564c0.666,0.374,1.197,0.605,1.545,0.646c0,0,4.692,0.189,10.704-0.62
		c6.011-0.809,8.727-4.24,13.587-4.24s5.955,0,5.955,0l0,0l-0.285-1.406c-0.572-2.888-0.457-5.775,0.286-8.691l3.288-13.723
		c-4.86-0.6-9.778-0.886-14.781-0.858C36.473,12.743,36.587,14.83,36.587,16.945z"/>
	<path fill="#777776" d="M18.923,47.177c-2.232,0-4.609-0.25-7.063-0.744c-2.868-0.621-3.183-2.387-3.117-3.385
		c0.112-1.646,1.397-2.791,3.818-3.405c5.398-1.371,11.069-3.792,17.337-7.402c2.41-1.388,4.082-3.544,4.968-6.406
		c0.517-2.925,0.807-5.921,0.864-8.906c0-1.98-0.102-4.011-0.311-6.192c-0.023-0.24,0.056-0.478,0.217-0.657
		s0.391-0.281,0.631-0.283c5.015-0.028,10.016,0.262,14.891,0.864c0.242,0.03,0.46,0.162,0.599,0.363s0.186,0.451,0.129,0.689
		L48.6,25.436c-0.731,2.867-0.821,5.587-0.279,8.325l0.972,4.8c0.451,1.957,0.225,3.535-0.675,4.666
		c-1.165,1.464-3.321,2.086-6.616,1.906c-0.016-0.001-0.032-0.002-0.048-0.004c-1.653-0.184-3.255-0.277-4.761-0.277
		c-1.056,0-2.1,0.046-3.101,0.136c-2.639,0.297-5.806,0.831-9.392,1.586C22.881,46.974,20.935,47.177,18.923,47.177z M37.211,11.512
		c0.157,1.886,0.234,3.672,0.234,5.434c-0.059,3.109-0.362,6.212-0.899,9.241c-0.006,0.034-0.014,0.068-0.024,0.101
		c-1.013,3.316-2.954,5.819-5.767,7.44c-6.405,3.69-12.218,6.169-17.771,7.579c-2.444,0.62-2.508,1.551-2.529,1.857
		c-0.026,0.386-0.08,1.193,1.756,1.591c2.331,0.469,4.593,0.708,6.712,0.708c1.888,0,3.71-0.19,5.416-0.565
		c3.647-0.768,6.868-1.311,9.58-1.616c1.071-0.096,2.166-0.144,3.274-0.144c1.562,0,3.219,0.096,4.926,0.284
		c2.639,0.141,4.381-0.288,5.157-1.263c0.559-0.702,0.674-1.791,0.341-3.236l-0.977-4.825c-0.585-2.956-0.486-6.008,0.295-9.073
		l3.06-12.774C45.797,11.77,41.503,11.521,37.211,11.512z"/>
	<path fill="#777776" d="M49.324,18.275c-4.002,0-10.206-0.606-12.244-0.805c-0.321-0.031-0.517-0.051-0.558-0.053
		c-0.155-0.008-0.278-0.138-0.274-0.293c0.004-0.155,0.128-0.279,0.283-0.279c0.034,0,0.09,0.005,0.605,0.055
		c5.451,0.532,9.552,0.802,12.189,0.802c0.158,0,0.286,0.128,0.286,0.286C49.61,18.147,49.482,18.275,49.324,18.275z"/>
	<path fill="#777776" d="M37.96,43.576c-0.008,0-0.015-0.001-0.023-0.002c-0.078-0.013-0.131-0.086-0.119-0.164
		c0.033-0.205,0.827-5.039,3.226-6.158c2.848-1.329,6.444-1.677,6.48-1.681c0.081-0.006,0.148,0.051,0.156,0.129
		c0.007,0.079-0.051,0.148-0.129,0.156c-0.036,0.003-3.583,0.347-6.385,1.655c-2.263,1.056-3.057,5.895-3.064,5.944
		C38.09,43.526,38.029,43.576,37.96,43.576z"/>
	<path fill="#777776" d="M19.734,46.292c-0.011,0-0.023-0.001-0.035-0.004c-0.077-0.019-0.123-0.097-0.104-0.173
		c0.83-3.32-2.154-6.77-2.185-6.804c-0.052-0.059-0.046-0.15,0.013-0.202s0.149-0.046,0.202,0.013
		c0.127,0.145,3.113,3.599,2.247,7.062C19.856,46.249,19.798,46.292,19.734,46.292z"/>
</g>
</svg>
