<?xml version="1.0" encoding="utf-8"?>
<!-- Generator: Ma bite et mon couteau 1.0  -->
<!DOCTYPE svg PUBLIC "-//W3C//DTD SVG 1.1//EN" "http://www.w3.org/Graphics/SVG/1.1/DTD/svg11.dtd">
<svg version="1.1" id="de_ville" xmlns="http://www.w3.org/2000/svg" xmlns:xlink="http://www.w3.org/1999/xlink" x="0px" y="0px"
	 viewBox="0 0 57 57" enable-background="new 0 0 57 57" xml:space="preserve">
<g>
	<path fill="#C6C6C6" d="M30.531,8.802c4.954-0.028,9.823,0.255,14.636,0.849L41.911,23.24c-0.736,2.887-0.849,5.747-0.283,8.606
		l0.963,4.756c0.906,3.935-1.161,5.775-6.341,5.492c-2.803-0.311-5.435-0.368-7.955-0.142c-2.52,0.283-5.634,0.793-9.399,1.585
		c-3.737,0.821-7.87,0.764-12.371-0.142c-1.699-0.368-2.491-1.189-2.406-2.463c0.085-1.246,1.132-2.095,3.142-2.605
		c5.464-1.387,11.239-3.878,17.382-7.417c2.605-1.5,4.388-3.822,5.322-6.879c0.538-3.029,0.821-6.03,0.878-9.002
		C30.842,12.935,30.729,10.868,30.531,8.802"/>
	<path fill="#777776" d="M13.35,44.966c-2.21,0-4.563-0.248-6.994-0.737c-2.84-0.615-3.152-2.364-3.086-3.352
		c0.111-1.629,1.383-2.763,3.781-3.371c5.345-1.357,10.96-3.754,17.167-7.33c2.387-1.375,4.042-3.509,4.919-6.343
		c0.511-2.896,0.8-5.862,0.856-8.819c0-1.962-0.101-3.972-0.308-6.131C29.662,8.645,29.74,8.409,29.9,8.232s0.387-0.279,0.625-0.28
		c4.964-0.026,9.918,0.259,14.745,0.856c0.24,0.03,0.456,0.16,0.594,0.359s0.184,0.447,0.128,0.682l-3.256,13.589
		c-0.723,2.839-0.813,5.532-0.276,8.243l0.962,4.753c0.446,1.938,0.223,3.501-0.669,4.621c-1.154,1.449-3.289,2.065-6.551,1.887
		c-0.016-0.001-0.032-0.002-0.047-0.004c-1.637-0.182-3.223-0.274-4.714-0.274c-1.046,0-2.08,0.045-3.071,0.135
		c-2.614,0.294-5.749,0.823-9.3,1.57C17.269,44.764,15.342,44.966,13.35,44.966z M31.459,9.649c0.156,1.866,0.232,3.635,0.232,5.38
		c-0.059,3.079-0.358,6.152-0.891,9.151c-0.006,0.034-0.014,0.067-0.024,0.1c-1.003,3.283-2.924,5.762-5.71,7.367
		c-6.343,3.654-12.099,6.108-17.597,7.504c-2.42,0.614-2.483,1.536-2.504,1.839c-0.026,0.383-0.079,1.181,1.739,1.575
		c2.308,0.464,4.549,0.701,6.647,0.701c1.87,0,3.674-0.188,5.363-0.559c3.611-0.76,6.8-1.298,9.486-1.6
		c1.061-0.096,2.145-0.143,3.242-0.143c1.546,0,3.187,0.095,4.877,0.282c2.613,0.141,4.338-0.285,5.106-1.251
		c0.553-0.695,0.667-1.773,0.338-3.204l-0.967-4.778c-0.58-2.927-0.481-5.949,0.292-8.984l3.03-12.648
		C39.962,9.905,35.709,9.659,31.459,9.649z"/>
	<path fill="#777776" d="M43.454,16.346c-3.963,0-10.106-0.6-12.124-0.797c-0.317-0.031-0.512-0.05-0.553-0.052
		c-0.153-0.008-0.275-0.137-0.271-0.29s0.127-0.276,0.28-0.276c0.033,0,0.09,0.005,0.599,0.055
		c5.398,0.527,9.458,0.794,12.069,0.794c0.156,0,0.283,0.127,0.283,0.283C43.737,16.219,43.61,16.346,43.454,16.346z"/>
	<path fill="#777776" d="M14.154,44.089c-0.011,0-0.023-0.001-0.034-0.004c-0.076-0.019-0.122-0.096-0.103-0.172
		c0.822-3.287-2.133-6.703-2.163-6.737c-0.052-0.059-0.046-0.148,0.013-0.2c0.058-0.051,0.148-0.046,0.2,0.013
		c0.126,0.144,3.082,3.563,2.225,6.993C14.275,44.047,14.217,44.089,14.154,44.089z"/>
</g>
<g>
	<path fill="#FFFFFF" d="M36.098,10.901c4.954-0.028,9.823,0.255,14.636,0.849l-3.256,13.589c-0.736,2.887-0.849,5.747-0.283,8.606
		l0.963,4.756c0.906,3.935-1.161,5.775-6.341,5.492c-2.803-0.311-5.435-0.368-7.955-0.142c-2.52,0.283-5.634,0.793-9.399,1.585
		c-3.737,0.821-7.87,0.764-12.371-0.142c-1.699-0.368-2.491-1.189-2.406-2.463c0.085-1.246,1.132-2.095,3.142-2.605
		c5.464-1.387,11.239-3.878,17.382-7.417c2.605-1.5,4.388-3.822,5.322-6.879c0.538-3.029,0.821-6.03,0.878-9.002
		C36.409,15.035,36.296,12.968,36.098,10.901"/>
	<path fill="#777776" d="M18.918,47.065c-2.21,0-4.563-0.248-6.994-0.737c-2.84-0.615-3.152-2.364-3.086-3.352
		c0.111-1.629,1.383-2.763,3.781-3.371c5.345-1.357,10.961-3.755,17.167-7.33c2.387-1.375,4.042-3.509,4.919-6.343
		c0.511-2.896,0.8-5.862,0.856-8.819c0-1.962-0.101-3.972-0.308-6.131c-0.023-0.237,0.055-0.474,0.215-0.651s0.387-0.279,0.625-0.28
		c4.965-0.027,9.918,0.259,14.745,0.856c0.24,0.03,0.456,0.16,0.594,0.359s0.184,0.447,0.128,0.682l-3.256,13.589
		c-0.723,2.839-0.813,5.532-0.276,8.243l0.962,4.753c0.446,1.938,0.223,3.501-0.669,4.621c-1.154,1.449-3.288,2.065-6.551,1.887
		c-0.016-0.001-0.032-0.002-0.047-0.004c-1.637-0.182-3.224-0.274-4.715-0.274c-1.046,0-2.079,0.045-3.07,0.134
		c-2.613,0.294-5.749,0.823-9.3,1.57C22.837,46.864,20.91,47.065,18.918,47.065z M37.027,11.749c0.156,1.866,0.232,3.635,0.232,5.38
		c-0.059,3.079-0.358,6.152-0.891,9.151c-0.006,0.034-0.014,0.067-0.024,0.1c-1.003,3.284-2.924,5.762-5.711,7.367
		c-6.343,3.654-12.099,6.108-17.597,7.505c-2.42,0.613-2.483,1.536-2.504,1.839c-0.026,0.383-0.079,1.181,1.739,1.575
		c2.308,0.464,4.548,0.701,6.646,0.701c1.87,0,3.674-0.188,5.363-0.559c3.611-0.76,6.801-1.298,9.486-1.6
		c1.061-0.095,2.145-0.143,3.241-0.143c1.546,0,3.187,0.095,4.878,0.282c2.613,0.141,4.338-0.285,5.106-1.251
		c0.553-0.695,0.667-1.773,0.338-3.204l-0.967-4.778c-0.58-2.927-0.481-5.949,0.292-8.984l3.03-12.648
		C45.529,12.004,41.277,11.758,37.027,11.749z"/>
	<path fill="#777776" d="M49.021,18.446c-3.963,0-10.106-0.6-12.124-0.797c-0.317-0.031-0.512-0.05-0.553-0.052
		c-0.153-0.008-0.275-0.137-0.271-0.29c0.004-0.153,0.127-0.276,0.28-0.276c0.033,0,0.09,0.005,0.599,0.055
		c5.398,0.527,9.458,0.794,12.069,0.794c0.156,0,0.283,0.127,0.283,0.283C49.304,18.319,49.178,18.446,49.021,18.446z"/>
	<path fill="#777776" d="M37.768,43.5c-0.007,0-0.015-0.001-0.022-0.002c-0.077-0.012-0.13-0.085-0.118-0.162
		c0.032-0.203,0.819-4.99,3.194-6.098c2.82-1.316,6.381-1.661,6.416-1.664c0.082-0.005,0.147,0.05,0.154,0.128
		s-0.05,0.147-0.128,0.154c-0.035,0.003-3.548,0.344-6.323,1.639c-2.24,1.045-3.027,5.838-3.034,5.886
		C37.897,43.45,37.837,43.5,37.768,43.5z"/>
	<path fill="#777776" d="M19.721,46.189c-0.011,0-0.023-0.001-0.034-0.004c-0.076-0.019-0.122-0.096-0.103-0.172
		c0.822-3.287-2.133-6.703-2.163-6.737c-0.052-0.059-0.046-0.148,0.013-0.2c0.059-0.051,0.148-0.046,0.2,0.013
		c0.126,0.144,3.082,3.563,2.225,6.993C19.842,46.146,19.784,46.189,19.721,46.189z"/>
</g>
</svg>
