<svg xmlns="http://www.w3.org/2000/svg" viewBox="0 0 57 57">
  <title>fantaisie</title>
  <path d="M30.65,8.54a114.8,114.8,0,0,1,14.78.86L42.14,23.12a19.44,19.44,0,0,0-.29,8.69l1,4.8c.92,4-1.17,5.83-6.4,5.55a40,40,0,0,0-8-.14c-2.55.29-5.69.8-9.49,1.6a30.25,30.25,0,0,1-12.49-.14C4.69,43.1,3.89,42.27,4,41s1.14-2.12,3.17-2.63A70.33,70.33,0,0,0,24.7,30.86a11.63,11.63,0,0,0,5.38-6.95A58.24,58.24,0,0,0,31,14.83c0-2.12-.11-4.2-.31-6.29" fill="#b2b2b2"/>
  <g>
    <path d="M34.2,36.14a9.73,9.73,0,0,0-1.53,3.16" fill="#9b9b9b"/>
    <path d="M34.2,36.14l-8.13-6.22a11.62,11.62,0,0,1-1.37.94l-1.47.82,9.44,7.62A9.73,9.73,0,0,1,34.2,36.14Z" fill="#9b9b9b"/>
    <path d="M17.79,34.47l5.5,8.29q2.8-.49,5-.74l-8-8.76Q19,33.9,17.79,34.47Z" fill="#9b9b9b"/>
    <path d="M14,36.1q-1.06.42-2.1.79L12,37c.13.14,3.11,3.6,2.25,7.06l0,.12a26.35,26.35,0,0,0,3.26-.3A11.66,11.66,0,0,0,14,36.1Z" fill="#9b9b9b"/>
    <path d="M42.2,22.89,42.89,20a76.47,76.47,0,0,1-12.17-.78c-.09,1-.21,1.92-.35,2.89A84.94,84.94,0,0,0,42.2,22.89Z" fill="#9b9b9b"/>
    <path d="M27.87,28.16a29.8,29.8,0,0,0,13.8,2.49,18.83,18.83,0,0,1-.16-3,47.22,47.22,0,0,1-12-2.12A11.92,11.92,0,0,1,27.87,28.16Z" fill="#9b9b9b"/>
    <path d="M43.71,15.57H44l1.48-6.19a114.8,114.8,0,0,0-14.78-.86c.2,2.05.31,4.1.31,6.18l.55.06C37,15.3,41.07,15.57,43.71,15.57Z" fill="#9b9b9b"/>
  </g>
  <g>
    <g>
      <path d="M13.3,45.06a36,36,0,0,1-7.06-.74c-2.87-.62-3.18-2.39-3.12-3.39.11-1.65,1.4-2.79,3.82-3.4a68.91,68.91,0,0,0,17.34-7.4,10.78,10.78,0,0,0,5-6.41,57.64,57.64,0,0,0,.86-8.91c0-2-.1-4-.31-6.19a.86.86,0,0,1,.85-.94,116.81,116.81,0,0,1,14.89.86.86.86,0,0,1,.73,1.05L43,23.31a18.47,18.47,0,0,0-.28,8.33l1,4.8A5.32,5.32,0,0,1,43,41.11c-1.17,1.46-3.32,2.09-6.62,1.91h0a43.29,43.29,0,0,0-4.76-.28c-1.06,0-2.1,0-3.1.14-2.64.3-5.81.83-9.39,1.59A27,27,0,0,1,13.3,45.06ZM31.59,9.39c.16,1.89.23,3.67.23,5.43a59.51,59.51,0,0,1-.9,9.24l0,.1a12.46,12.46,0,0,1-5.77,7.44A70.59,70.59,0,0,1,7.36,39.19c-2.44.62-2.51,1.55-2.53,1.86s-.08,1.19,1.76,1.59a34.24,34.24,0,0,0,6.71.71,25.29,25.29,0,0,0,5.42-.56c3.65-.77,6.87-1.31,9.58-1.62,1.07-.1,2.17-.15,3.27-.15a45,45,0,0,1,4.93.28c2.64.14,4.38-.29,5.16-1.26A3.77,3.77,0,0,0,42,36.8L41,32a20.42,20.42,0,0,1,.29-9.07l3.06-12.77A115.22,115.22,0,0,0,31.59,9.39Z" fill="#777776"/>
      <path d="M44.33,16.45c-4,0-10.21-.61-12.24-.81l-.56-.05a.29.29,0,0,1-.27-.29.28.28,0,0,1,.28-.28l.6.06c5.45.53,9.55.8,12.19.8a.29.29,0,0,1,0,.57Z" fill="#777776"/>
      <path d="M14.11,44.17h0A.14.14,0,0,1,14,44c.83-3.32-2.15-6.77-2.19-6.8A.14.14,0,1,1,12,37c.13.15,3.11,3.6,2.25,7.06A.14.14,0,0,1,14.11,44.17Z" fill="#777776"/>
    </g>
    <g>
      <path d="M13.3,45.06a36,36,0,0,1-7.06-.74c-2.87-.62-3.18-2.39-3.12-3.39.11-1.65,1.4-2.79,3.82-3.4a68.91,68.91,0,0,0,17.34-7.4,10.78,10.78,0,0,0,5-6.41,57.64,57.64,0,0,0,.86-8.91c0-2-.1-4-.31-6.19a.86.86,0,0,1,.85-.94,116.81,116.81,0,0,1,14.89.86.86.86,0,0,1,.73,1.05L43,23.31a18.47,18.47,0,0,0-.28,8.33l1,4.8A5.32,5.32,0,0,1,43,41.11c-1.17,1.46-3.32,2.09-6.62,1.91h0a43.29,43.29,0,0,0-4.76-.28c-1.06,0-2.1,0-3.1.14-2.64.3-5.81.83-9.39,1.59A27,27,0,0,1,13.3,45.06ZM31.59,9.39c.16,1.89.23,3.67.23,5.43a59.51,59.51,0,0,1-.9,9.24l0,.1a12.46,12.46,0,0,1-5.77,7.44A70.59,70.59,0,0,1,7.36,39.19c-2.44.62-2.51,1.55-2.53,1.86s-.08,1.19,1.76,1.59a34.24,34.24,0,0,0,6.71.71,25.29,25.29,0,0,0,5.42-.56c3.65-.77,6.87-1.31,9.58-1.62,1.07-.1,2.17-.15,3.27-.15a45,45,0,0,1,4.93.28c2.64.14,4.38-.29,5.16-1.26A3.77,3.77,0,0,0,42,36.8L41,32a20.42,20.42,0,0,1,.29-9.07l3.06-12.77A115.22,115.22,0,0,0,31.59,9.39Z" fill="#777776"/>
      <path d="M44.33,16.45c-4,0-10.21-.61-12.24-.81l-.56-.05a.29.29,0,0,1-.27-.29.28.28,0,0,1,.28-.28l.6.06c5.45.53,9.55.8,12.19.8a.29.29,0,0,1,0,.57Z" fill="#777776"/>
      <path d="M14.11,44.17h0A.14.14,0,0,1,14,44c.83-3.32-2.15-6.77-2.19-6.8A.14.14,0,1,1,12,37c.13.15,3.11,3.6,2.25,7.06A.14.14,0,0,1,14.11,44.17Z" fill="#777776"/>
    </g>
  </g>
  <path d="M36.27,10.66a114.8,114.8,0,0,1,14.78.86L47.77,25.24a19.44,19.44,0,0,0-.29,8.69l1,4.8c.92,4-1.17,5.83-6.4,5.55a40,40,0,0,0-8-.14c-2.55.29-5.69.8-9.49,1.6A30.25,30.25,0,0,1,12,45.59c-1.72-.37-2.52-1.2-2.43-2.49s1.14-2.12,3.17-2.63A70.33,70.33,0,0,0,30.33,33,11.63,11.63,0,0,0,35.7,26a58.24,58.24,0,0,0,.89-9.09c0-2.12-.11-4.2-.31-6.29" fill="#fff"/>
  <g>
    <path d="M39.82,38.27a9.73,9.73,0,0,0-1.53,3.16" fill="#ddd"/>
    <path d="M39.82,38.27,31.69,32a11.62,11.62,0,0,1-1.37.94l-1.47.82,9.44,7.62A9.73,9.73,0,0,1,39.82,38.27Z" fill="#ddd"/>
    <path d="M23.41,36.59l5.5,8.29q2.8-.49,5-.74l-8-8.76Q24.64,36,23.41,36.59Z" fill="#ddd"/>
    <path d="M19.61,38.23q-1.06.42-2.1.79l.12.1c.13.14,3.11,3.6,2.25,7.06l0,.12a26.35,26.35,0,0,0,3.26-.3A11.66,11.66,0,0,0,19.61,38.23Z" fill="#ddd"/>
    <path d="M47.82,25l.69-2.88a76.47,76.47,0,0,1-12.17-.78c-.09,1-.21,1.92-.35,2.89A84.94,84.94,0,0,0,47.82,25Z" fill="#ddd"/>
    <path d="M33.49,30.28a29.8,29.8,0,0,0,13.8,2.49,18.83,18.83,0,0,1-.16-3,47.22,47.22,0,0,1-12-2.12A11.92,11.92,0,0,1,33.49,30.28Z" fill="#ddd"/>
    <path d="M49.33,17.7h.25l1.48-6.19a114.8,114.8,0,0,0-14.78-.86c.2,2.05.31,4.1.31,6.18l.55.06C42.59,17.43,46.69,17.7,49.33,17.7Z" fill="#ddd"/>
  </g>
  <path d="M49.32,18.27c-4,0-10.21-.61-12.24-.81l-.56-.05a.29.29,0,0,1-.27-.29.28.28,0,0,1,.28-.28l.6.06c5.45.53,9.55.8,12.19.8a.29.29,0,1,1,0,.57Z" fill="#777776"/>
  <path d="M38,43.58h0a.14.14,0,0,1-.12-.16c0-.21.83-5,3.23-6.16a23,23,0,0,1,6.48-1.68.14.14,0,1,1,0,.28,22.64,22.64,0,0,0-6.38,1.65c-2.26,1.06-3.06,5.9-3.06,5.94A.14.14,0,0,1,38,43.58Z" fill="#777776"/>
  <path d="M19.73,46.29h0a.14.14,0,0,1-.1-.17c.83-3.32-2.15-6.77-2.18-6.8a.14.14,0,1,1,.22-.19c.13.15,3.11,3.6,2.25,7.06A.14.14,0,0,1,19.73,46.29Z" fill="#777776"/>
  <path d="M18.92,47.18a36,36,0,0,1-7.06-.74C9,45.81,8.68,44,8.74,43c.11-1.65,1.4-2.79,3.82-3.4a69,69,0,0,0,17.34-7.4,10.78,10.78,0,0,0,5-6.41,57.65,57.65,0,0,0,.86-8.91c0-2-.1-4-.31-6.19a.86.86,0,0,1,.85-.94,116.53,116.53,0,0,1,14.89.86.86.86,0,0,1,.73,1.05L48.6,25.44a18.47,18.47,0,0,0-.28,8.33l1,4.8a5.32,5.32,0,0,1-.67,4.67c-1.17,1.46-3.32,2.09-6.62,1.91h0a43.29,43.29,0,0,0-4.76-.28c-1.06,0-2.1,0-3.1.14-2.64.3-5.81.83-9.39,1.59A27,27,0,0,1,18.92,47.18ZM37.21,11.51c.16,1.89.23,3.67.23,5.43a59.52,59.52,0,0,1-.9,9.24l0,.1a12.46,12.46,0,0,1-5.77,7.44A70.6,70.6,0,0,1,13,41.31c-2.44.62-2.51,1.55-2.53,1.86s-.08,1.19,1.76,1.59a34.24,34.24,0,0,0,6.71.71,25.29,25.29,0,0,0,5.42-.56c3.65-.77,6.87-1.31,9.58-1.62,1.07-.1,2.17-.14,3.27-.14a45.26,45.26,0,0,1,4.93.28c2.64.14,4.38-.29,5.16-1.26a3.77,3.77,0,0,0,.34-3.24l-1-4.83A20.42,20.42,0,0,1,46.93,25L50,12.25A114.76,114.76,0,0,0,37.21,11.51Z" fill="#777776"/>
</svg>
