<?xml version="1.0" encoding="utf-8"?>
<!-- Generator: Ma bite et mon couteau 1.0  -->
<!DOCTYPE svg PUBLIC "-//W3C//DTD SVG 1.1//EN" "http://www.w3.org/Graphics/SVG/1.1/DTD/svg11.dtd">
<svg version="1.1" id="soquette" xmlns="http://www.w3.org/2000/svg" xmlns:xlink="http://www.w3.org/1999/xlink" x="0px" y="0px"
	 viewBox="0 0 57 57" enable-background="new 0 0 57 57" xml:space="preserve">
<g>
	<path fill="#C6C6C6" d="M36.659,42.188c-2.824-0.317-5.532-0.375-8.067-0.144c-2.564,0.288-5.733,0.807-9.565,1.613
		c-3.803,0.836-8.009,0.778-12.619-0.144c-1.7-0.374-2.535-1.21-2.42-2.506c0.058-1.268,1.124-2.132,3.198-2.651
		c5.561-1.412,11.438-3.947,17.69-7.548c0.893-0.519,1.671-1.066,2.276-1.613c1.095-1.008,1.69-3.188,1.719-4.254
		c5.09,0.288,10.18,0.912,14.597,2.113c-0.403,1.239-0.989,3.611-0.989,4.907c-0.058,1.498,0.173,3.054,0.634,4.638
		C44.063,40.603,41.931,42.476,36.659,42.188"/>
	<path fill="#777776" d="M13.381,45.111c-2.251,0-4.654-0.252-7.142-0.75c-2.9-0.639-3.197-2.403-3.113-3.412
		c0.085-1.659,1.38-2.813,3.851-3.431c5.437-1.38,11.152-3.82,17.468-7.459c0.859-0.499,1.576-1.006,2.128-1.506
		c0.834-0.769,1.409-2.669,1.435-3.637c0.006-0.234,0.107-0.455,0.279-0.613c0.172-0.158,0.401-0.241,0.634-0.227
		c5.778,0.327,10.749,1.048,14.775,2.142c0.228,0.062,0.421,0.215,0.534,0.423c0.113,0.208,0.134,0.453,0.061,0.678
		c-0.382,1.173-0.947,3.459-0.947,4.64c0,0.011,0,0.022-0.001,0.033c-0.052,1.349,0.15,2.817,0.6,4.364
		c0.004,0.014,0.008,0.028,0.011,0.042c0.472,1.987,0.252,3.574-0.652,4.717c-1.174,1.485-3.356,2.116-6.69,1.935
		c-0.016-0.001-0.033-0.002-0.049-0.004c-2.801-0.315-5.469-0.363-7.892-0.142c-2.661,0.299-5.852,0.838-9.465,1.598
		C17.372,44.906,15.41,45.111,13.381,45.111z M29.636,25.852c-0.23,1.295-0.86,3.02-1.899,3.978
		c-0.647,0.585-1.462,1.164-2.428,1.725c-6.458,3.72-12.316,6.218-17.911,7.639c-2.491,0.623-2.533,1.548-2.547,1.852
		c-0.001,0.012-0.001,0.025-0.003,0.037c-0.031,0.353-0.105,1.178,1.745,1.586c2.361,0.472,4.65,0.713,6.787,0.713
		c1.905,0,3.742-0.191,5.46-0.569c3.675-0.774,6.921-1.321,9.654-1.628c1.067-0.097,2.167-0.146,3.285-0.146
		c1.581,0,3.246,0.097,4.95,0.287c2.665,0.142,4.434-0.293,5.215-1.282c0.557-0.705,0.668-1.79,0.331-3.226
		c-0.496-1.712-0.718-3.352-0.662-4.875c0.004-1.166,0.405-2.976,0.769-4.28C38.825,26.774,34.545,26.166,29.636,25.852z"/>
	<path fill="#777776" d="M42.652,30.462c-0.012,0-0.023-0.001-0.035-0.002c-4.135-0.499-14.361-2.098-14.463-2.114
		c-0.157-0.025-0.265-0.172-0.24-0.329c0.025-0.157,0.173-0.263,0.329-0.24c0.103,0.016,10.319,1.614,14.444,2.111
		c0.158,0.019,0.27,0.163,0.252,0.321C42.92,30.354,42.796,30.462,42.652,30.462z"/>
	<path fill="#777776" d="M15.137,44.363c0,0-0.001,0-0.002,0c-0.079-0.001-0.143-0.066-0.142-0.146
		c0.07-5.688-2.643-7.494-2.671-7.512c-0.067-0.043-0.086-0.132-0.043-0.199c0.043-0.067,0.132-0.087,0.199-0.044
		c0.117,0.075,2.875,1.911,2.803,7.758C15.28,44.3,15.216,44.363,15.137,44.363z"/>
	<path fill="#777776" d="M33.937,41.914c-0.006,0-0.012,0-0.018-0.001c-0.079-0.01-0.135-0.081-0.125-0.16
		c0.024-0.196,0.617-4.825,3.327-5.997c2.099-0.908,3.362-1.036,4.477-1.148c0.32-0.032,0.623-0.063,0.936-0.11
		c0.078-0.012,0.152,0.042,0.164,0.121c0.012,0.079-0.042,0.152-0.121,0.164c-0.32,0.048-0.626,0.079-0.95,0.112
		c-1.094,0.111-2.334,0.236-4.392,1.126c-2.558,1.106-3.15,5.721-3.155,5.767C34.071,41.861,34.008,41.914,33.937,41.914z"/>
</g>
<g>
	<path fill="#FFFFFF" d="M42.037,44.289c-2.824-0.317-5.532-0.375-8.067-0.144c-2.564,0.288-5.733,0.807-9.565,1.613
		c-3.803,0.836-8.009,0.778-12.619-0.144c-1.7-0.374-2.535-1.21-2.42-2.506c0.058-1.268,1.124-2.132,3.198-2.651
		c5.561-1.412,11.438-3.947,17.69-7.548c0.893-0.519,1.671-1.066,2.276-1.613c1.095-1.008,1.69-3.188,1.719-4.254
		c5.09,0.288,10.18,0.912,14.597,2.113c-0.403,1.239-0.989,3.611-0.989,4.907c-0.058,1.498,0.173,3.054,0.634,4.638
		C49.441,42.704,47.309,44.577,42.037,44.289"/>
	<path fill="#777776" d="M18.759,47.211c-2.251,0-4.654-0.252-7.142-0.75c-2.9-0.639-3.197-2.403-3.113-3.412
		c0.085-1.659,1.38-2.814,3.851-3.431c5.437-1.381,11.152-3.82,17.468-7.459c0.858-0.498,1.574-1.005,2.128-1.505
		c0.835-0.769,1.409-2.669,1.435-3.637c0.006-0.234,0.107-0.455,0.279-0.613c0.172-0.158,0.401-0.239,0.634-0.227
		c5.778,0.327,10.75,1.047,14.775,2.142c0.228,0.062,0.421,0.215,0.534,0.423c0.113,0.208,0.134,0.454,0.061,0.678
		c-0.382,1.172-0.947,3.458-0.947,4.64c0,0.011,0,0.022-0.001,0.033c-0.052,1.349,0.15,2.817,0.6,4.364
		c0.004,0.014,0.008,0.028,0.011,0.042c0.472,1.987,0.252,3.574-0.652,4.717c-1.174,1.485-3.355,2.116-6.69,1.935
		c-0.016-0.001-0.033-0.002-0.049-0.004c-2.801-0.315-5.469-0.362-7.892-0.142c-2.661,0.299-5.851,0.838-9.465,1.598
		C22.75,47.007,20.788,47.211,18.759,47.211z M35.014,27.953c-0.23,1.295-0.859,3.02-1.899,3.978
		c-0.648,0.586-1.463,1.165-2.428,1.725c-6.457,3.72-12.315,6.218-17.911,7.639c-2.491,0.623-2.533,1.548-2.547,1.852
		c-0.001,0.012-0.001,0.025-0.003,0.037c-0.031,0.353-0.105,1.178,1.745,1.586c2.361,0.472,4.65,0.713,6.787,0.713
		c1.905,0,3.742-0.191,5.46-0.569c3.675-0.774,6.921-1.321,9.654-1.628c1.067-0.097,2.166-0.145,3.285-0.145
		c1.581,0,3.247,0.097,4.95,0.287c2.666,0.143,4.434-0.293,5.215-1.282c0.557-0.705,0.668-1.79,0.331-3.226
		c-0.496-1.712-0.719-3.352-0.662-4.876c0.004-1.167,0.405-2.976,0.768-4.28C44.203,28.875,39.923,28.267,35.014,27.953z"/>
	<path fill="#777776" d="M48.03,32.563c-0.012,0-0.023-0.001-0.035-0.002c-4.135-0.499-14.36-2.098-14.463-2.114
		c-0.157-0.025-0.265-0.172-0.24-0.329c0.024-0.157,0.172-0.263,0.329-0.24c0.103,0.016,10.318,1.614,14.443,2.111
		c0.158,0.019,0.27,0.163,0.252,0.321C48.298,32.455,48.173,32.563,48.03,32.563z"/>
	<path fill="#777776" d="M20.515,46.464c0,0-0.001,0-0.002,0c-0.079-0.001-0.143-0.066-0.142-0.146
		c0.07-5.688-2.643-7.494-2.671-7.512c-0.067-0.043-0.086-0.132-0.043-0.199c0.043-0.067,0.132-0.087,0.199-0.044
		c0.117,0.075,2.875,1.911,2.803,7.758C20.658,46.401,20.594,46.464,20.515,46.464z"/>
	<path fill="#777776" d="M39.314,44.015c-0.006,0-0.012,0-0.018-0.001c-0.079-0.01-0.135-0.081-0.125-0.16
		c0.024-0.196,0.617-4.825,3.327-5.997c2.099-0.908,3.363-1.036,4.478-1.149c0.32-0.032,0.622-0.063,0.936-0.11
		c0.078-0.01,0.152,0.042,0.164,0.121c0.012,0.079-0.042,0.152-0.121,0.164c-0.32,0.048-0.626,0.079-0.95,0.112
		c-1.094,0.111-2.334,0.236-4.393,1.127c-2.558,1.106-3.15,5.721-3.155,5.767C39.448,43.962,39.386,44.015,39.314,44.015z"/>
</g>
</svg>
