<?xml version="1.0" encoding="iso-8859-1"?>
<!-- Generator: Adobe Illustrator 19.1.0, SVG Export Plug-In . SVG Version: 6.00 Build 0)  -->
<svg xmlns="http://www.w3.org/2000/svg" xmlns:xlink="http://www.w3.org/1999/xlink" version="1.1" id="Capa_1" x="0px" y="0px" viewBox="0 0 64 64" style="enable-background:new 0 0 64 64;" xml:space="preserve" width="512px" height="512px">
<g>
	<g>
		<path d="M32,0c-9.374,0-17,7.626-17,17v30c0,9.374,7.626,17,17,17s17-7.626,17-17V17C49,7.626,41.374,0,32,0z M31,2.051V20H17v-3    C17,9.066,23.195,2.569,31,2.051z M32,62c-8.271,0-15-6.729-15-15V22h30v25C47,55.271,40.271,62,32,62z M47,20H33V2.051    C40.805,2.569,47,9.066,47,17V20z" fill="#7d7d7d"/>
	</g>
</g>
<g>
</g>
<g>
</g>
<g>
</g>
<g>
</g>
<g>
</g>
<g>
</g>
<g>
</g>
<g>
</g>
<g>
</g>
<g>
</g>
<g>
</g>
<g>
</g>
<g>
</g>
<g>
</g>
<g>
</g>
</svg>
